<svg width="26" height="25" fill="none" xmlns="http://www.w3.org/2000/svg"><g clip-path="url(#clip0)" fill="#465461"><path d="M12.85 13.958c3.704 0 6.709-2.997 6.709-6.692 0-3.694-3.005-6.67-6.71-6.67-3.704 0-6.708 2.996-6.708 6.67 0 3.675 3.004 6.692 6.709 6.692zm0-11.618c2.716 0 4.94 2.217 4.94 4.926 0 2.71-2.224 4.927-4.94 4.927-2.717 0-4.94-2.217-4.94-4.927 0-2.709 2.223-4.926 4.94-4.926zM1.242 24.404H24.54c.494 0 .885-.39.885-.882 0-4.618-3.766-8.395-8.417-8.395H8.775c-4.63 0-8.418 3.756-8.418 8.395 0 .493.391.883.885.883zm7.533-7.512h8.232a6.637 6.637 0 0 1 6.586 5.747H2.189a6.655 6.655 0 0 1 6.586-5.747z"/></g><defs><clipPath id="clip0"><path fill="#fff" transform="translate(.357)" d="M0 0h25.067v25H0z"/></clipPath></defs></svg>