<svg width="26" height="25" viewBox="0 0 26 25" fill="none" xmlns="http://www.w3.org/2000/svg">
<g clip-path="url(#clip0)">
<path d="M12.8498 13.9578C16.5543 13.9578 19.559 10.9611 19.559 7.2665C19.559 3.57194 16.5542 0.595703 12.8498 0.595703C9.14537 0.595703 6.14062 3.59244 6.14062 7.2665C6.14062 10.9406 9.14533 13.9578 12.8498 13.9578ZM12.8498 2.34037C15.5664 2.34037 17.7891 4.55711 17.7891 7.2665C17.7891 9.97588 15.5664 12.1926 12.8498 12.1926C10.1332 12.1926 7.91051 9.97584 7.91051 7.26645C7.91051 4.55707 10.1332 2.34037 12.8498 2.34037Z" fill="#465461"/>
<path d="M1.24237 24.4045H24.5393C25.0332 24.4045 25.4243 24.0145 25.4243 23.5219C25.4243 18.9036 21.6581 15.127 17.0069 15.127H8.77478C4.14421 15.127 0.357422 18.8831 0.357422 23.5219C0.357422 24.0145 0.748442 24.4045 1.24237 24.4045ZM8.77478 16.8921H17.0069C20.3821 16.8921 23.1604 19.3962 23.5926 22.6392H2.18906C2.62124 19.4168 5.39962 16.8921 8.77478 16.8921Z" fill="#465461"/>
</g>
<defs>
<clipPath id="clip0">
<rect width="25.0668" height="25" fill="white" transform="translate(0.357422)"/>
</clipPath>
</defs>
</svg>
